<svg width="24" height="18" viewBox="0 0 24 18" fill="none" xmlns="http://www.w3.org/2000/svg">
<path d="M19.9895 1.72799C19.9831 1.71562 19.9725 1.70593 19.9596 1.70065C18.4705 1.01739 16.8989 0.530176 15.2844 0.251195C15.2697 0.248468 15.2546 0.250435 15.2411 0.256817C15.2276 0.263199 15.2165 0.27367 15.2093 0.286742C14.9953 0.675136 14.801 1.07408 14.6273 1.48205C12.8869 1.21787 11.1166 1.21787 9.37624 1.48205C9.20131 1.07304 9.00394 0.674001 8.78503 0.286742C8.77753 0.273954 8.76634 0.263724 8.75294 0.257384C8.73953 0.251044 8.72453 0.248887 8.70988 0.251195C7.09518 0.529591 5.52356 1.01684 4.03456 1.70069C4.02182 1.70609 4.01106 1.71532 4.00378 1.72709C1.02609 6.17389 0.210385 10.5113 0.610541 14.7951C0.611667 14.8056 0.614893 14.8158 0.620026 14.825C0.62516 14.8342 0.632097 14.8423 0.640424 14.8488C2.37431 16.1326 4.31368 17.1126 6.37578 17.7468C6.3903 17.7512 6.40581 17.751 6.42021 17.7463C6.43462 17.7415 6.44723 17.7325 6.45636 17.7204C6.89926 17.1178 7.29169 16.4797 7.62968 15.8125C7.63433 15.8034 7.63698 15.7933 7.63746 15.7831C7.63795 15.7728 7.63625 15.7626 7.63249 15.753C7.62873 15.7435 7.62299 15.7348 7.61564 15.7277C7.6083 15.7205 7.59952 15.715 7.58988 15.7114C6.97103 15.4746 6.37192 15.1892 5.79816 14.8578C5.78774 14.8517 5.77898 14.8431 5.77267 14.8328C5.76636 14.8224 5.76268 14.8107 5.76197 14.7987C5.76126 14.7866 5.76352 14.7745 5.76858 14.7636C5.77363 14.7526 5.78131 14.743 5.79093 14.7357C5.91132 14.6455 6.03179 14.5517 6.14675 14.4569C6.15697 14.4485 6.16932 14.4431 6.18244 14.4413C6.19555 14.4396 6.2089 14.4415 6.22097 14.4469C9.97992 16.1624 14.0495 16.1624 17.7639 14.4469C17.776 14.4411 17.7895 14.4389 17.8028 14.4406C17.8161 14.4422 17.8287 14.4475 17.8391 14.456C17.9541 14.5508 18.0745 14.6455 18.1958 14.7357C18.2055 14.7429 18.2132 14.7524 18.2184 14.7634C18.2235 14.7743 18.2259 14.7864 18.2252 14.7984C18.2246 14.8105 18.221 14.8222 18.2148 14.8326C18.2085 14.8429 18.1999 14.8516 18.1895 14.8578C17.617 15.192 17.0174 15.4773 16.3969 15.7105C16.3873 15.7142 16.3785 15.7199 16.3712 15.7271C16.3639 15.7344 16.3582 15.7432 16.3546 15.7528C16.3509 15.7624 16.3493 15.7727 16.3498 15.783C16.3504 15.7933 16.3531 15.8034 16.3578 15.8125C16.7015 16.4759 17.0934 17.1133 17.5303 17.7194C17.5391 17.7318 17.5517 17.7411 17.5662 17.746C17.5806 17.7509 17.5963 17.7512 17.6109 17.7467C19.6766 17.1146 21.6194 16.1346 23.3555 14.8488C23.3639 14.8426 23.371 14.8347 23.3761 14.8256C23.3813 14.8165 23.3844 14.8064 23.3853 14.796C23.8644 9.84354 22.5833 5.54162 19.9895 1.72799ZM8.19105 12.1867C7.05933 12.1867 6.12683 11.1482 6.12683 9.87272C6.12683 8.59725 7.04124 7.55862 8.19105 7.55862C9.34984 7.55862 10.2733 8.60627 10.2552 9.87264C10.2552 11.1482 9.34078 12.1867 8.19105 12.1867ZM15.8231 12.1867C14.6914 12.1867 13.7589 11.1482 13.7589 9.87272C13.7589 8.59725 14.6733 7.55862 15.8231 7.55862C16.9819 7.55862 17.9054 8.60627 17.8873 9.87264C17.8873 11.1482 16.9819 12.1867 15.8231 12.1867Z" fill="#727272"/>
</svg>
