<svg width="34" height="34" viewBox="0 0 34 34" fill="none" xmlns="http://www.w3.org/2000/svg">
<rect y="33.0391" width="33.0386" height="33.0386" rx="8.25965" transform="rotate(-90 0 33.0391)" fill="#05FF00"/>
<path d="M20.6494 16.519C20.6505 16.7002 20.6157 16.8798 20.5472 17.0475C20.4787 17.2153 20.3778 17.3678 20.2502 17.4964L14.7438 23.0029C14.4845 23.2621 14.133 23.4077 13.7664 23.4077C13.3998 23.4077 13.0482 23.2621 12.789 23.0029C12.5298 22.7436 12.3841 22.3921 12.3841 22.0255C12.3841 21.6589 12.5298 21.3073 12.789 21.0481L17.3318 16.519L12.8027 11.99C12.5772 11.7267 12.4594 11.3879 12.4727 11.0414C12.4861 10.695 12.6298 10.3663 12.8749 10.1212C13.1201 9.876 13.4487 9.73238 13.7952 9.71899C14.1417 9.70561 14.4804 9.82346 14.7438 10.049L20.2502 15.5554C20.5045 15.8118 20.6479 16.1579 20.6494 16.519Z" fill="black"/>
</svg>
