<svg width="24" height="24" viewBox="0 0 24 24" fill="none" xmlns="http://www.w3.org/2000/svg">
<path fill-rule="evenodd" clip-rule="evenodd" d="M12 24C18.6273 24 24 18.6273 24 12C24 5.37268 18.6273 0 12 0C5.37268 0 0 5.37268 0 12C0 18.6273 5.37268 24 12 24ZM10.5791 12C10.5791 13.8105 12.0465 15.2776 13.8567 15.2776C15.1674 15.2776 16.2982 14.5082 16.8223 13.396H19.5095C18.884 15.9375 16.5905 17.8231 13.856 17.8231H5.78796L8.80078 14.8927L8.80408 14.8945C8.65833 14.6407 8.53125 14.3745 8.42395 14.0984L4.31909 12.0242L8.39685 9.97119C8.49829 9.6969 8.62097 9.43286 8.7616 9.18018H8.76086L5.7887 6.17688H13.8567C16.5487 6.17688 18.8137 8.00391 19.4799 10.4872H16.7648C16.2177 9.43909 15.1216 8.72241 13.8567 8.72241C12.0465 8.72241 10.5791 10.1895 10.5791 12Z" fill="#727272"/>
</svg>
