<svg width="24" height="24" viewBox="0 0 24 24" fill="none" xmlns="http://www.w3.org/2000/svg">
<path d="M11.9825 24C9.61275 24.0002 7.29613 23.2977 5.32562 21.9812C3.35511 20.6648 1.81925 18.7935 0.912263 16.6042C0.00527648 14.4148 -0.232098 12.0057 0.23016 9.68139C0.692418 7.35716 1.83355 5.22217 3.50923 3.54647C4.62005 2.42589 5.94126 1.53575 7.39701 0.927151C8.85277 0.318555 10.4144 0.00348381 11.9922 2.87283e-05C13.5701 -0.00342636 15.1331 0.304803 16.5915 0.907021C18.0499 1.50923 19.375 2.39358 20.4907 3.50928C21.6064 4.62499 22.4907 5.95007 23.093 7.40847C23.6952 8.86689 24.0034 10.4298 24 12.0077C23.9965 13.5855 23.6814 15.1472 23.0728 16.6028C22.4643 18.0586 21.5741 19.3798 20.4535 20.4906C19.3437 21.6066 18.0235 22.4913 16.5695 23.0937C15.1155 23.6961 13.5564 24.0042 11.9825 24ZM15.1696 8.41809L15.2667 8.79196L17.2311 15.9125H18.8294L16.1479 6.67842L16.0827 6.4274H14.6886L14.6562 6.47773L13.3521 8.79376L12.0149 11.1691L11.9825 11.2259L11.9676 11.1691L11.8028 10.5586L11.3463 8.79376L11.2972 8.61819L10.7916 6.67782L10.7263 6.42681H9.33465L9.30233 6.47713L7.99874 8.79376L6.66157 11.1691L5.33282 13.536L3.99568 15.9125H5.59282L6.92996 13.5372L8.26709 11.1709L9.59588 8.79556L9.81571 8.41929L9.91336 8.79556L10.3208 10.3597L10.8269 12.3079L11.003 12.9722L10.6856 13.5372L9.34665 15.9125H10.9438L11.5081 14.9102L12.4888 13.1699L13.618 11.1709L14.9468 8.79556L15.166 8.42109L15.1696 8.41809Z" fill="#245EC6"/>
</svg>
