<svg width="17" height="20" viewBox="0 0 17 20" fill="none" xmlns="http://www.w3.org/2000/svg">
<path d="M0.374196 9.40258C0.613866 9.14481 0.938885 9 1.27778 9C1.61667 9 1.94169 9.14481 2.18136 9.40258L8.50772 16.2088L14.8341 9.40258C15.0751 9.15211 15.398 9.01352 15.7331 9.01665C16.0682 9.01979 16.3887 9.16439 16.6257 9.41933C16.8626 9.67427 16.997 10.0191 17 10.3797C17.0029 10.7402 16.874 11.0875 16.6412 11.3468L9.4113 19.1252C9.17163 19.383 8.84661 19.5278 8.50772 19.5278C8.16882 19.5278 7.8438 19.383 7.60413 19.1252L0.374196 11.3468C0.134599 11.089 0 10.7393 0 10.3747C0 10.0101 0.134599 9.66043 0.374196 9.40258Z" fill="#B6B9BD"/>
<line x1="8.5" y1="15.5" x2="8.5" y2="1.5" stroke="#B6B9BD" stroke-width="3" stroke-linecap="round"/>
</svg>
