<svg width="32" height="32" viewBox="0 0 32 32" fill="none" xmlns="http://www.w3.org/2000/svg">
<rect width="32" height="32" rx="16" fill="#2C2C2C"/>
<path fill-rule="evenodd" clip-rule="evenodd" d="M20.6 22.3984C20.1029 22.3984 19.7 21.9955 19.7 21.4984L19.7 13.0528L17.6364 15.1164C17.2849 15.4679 16.715 15.4679 16.3636 15.1164C16.0121 14.7649 16.0121 14.1951 16.3636 13.8436L19.8929 10.3143C20.2834 9.92379 20.9166 9.92378 21.3071 10.3143L24.8364 13.8436C25.1878 14.1951 25.1878 14.7649 24.8364 15.1164C24.4849 15.4679 23.915 15.4679 23.5636 15.1164L21.5 13.0528L21.5 21.4984C21.5 21.9955 21.0971 22.3984 20.6 22.3984Z" fill="#E2E2E2"/>
<path fill-rule="evenodd" clip-rule="evenodd" d="M10.6 21.1184L10.6 10.9C10.6 10.4029 11.0029 10 11.5 10C11.997 10 12.4 10.4029 12.4 10.9L12.4 21.1184C12.4 21.6155 11.997 22.0184 11.5 22.0184C11.0029 22.0184 10.6 21.6155 10.6 21.1184Z" fill="#E2E2E2"/>
<path fill-rule="evenodd" clip-rule="evenodd" d="M15.7364 17.282C16.0879 17.6335 16.0879 18.2034 15.7364 18.5548L12.2071 22.0841C11.8166 22.4746 11.1834 22.4746 10.7929 22.0841L7.2636 18.5548C6.91213 18.2033 6.91213 17.6335 7.2636 17.282C7.61508 16.9305 8.18493 16.9306 8.5364 17.282L11.5 20.2456L14.4636 17.282C14.8151 16.9306 15.3849 16.9306 15.7364 17.282Z" fill="#E2E2E2"/>
</svg>
