<svg width="12" height="12" viewBox="0 0 12 12" fill="none" xmlns="http://www.w3.org/2000/svg">
<path d="M6.01598 11.2126C5.56297 11.2143 5.15231 11.0854 4.77938 10.8289C4.06624 10.3385 3.38193 9.8149 2.78837 9.18214C1.91901 8.25578 1.39911 7.15489 1.17172 5.9201C1.05962 5.3103 0.983115 4.69131 0.934363 4.07339C0.861056 3.1435 1.37349 2.34362 2.26099 1.95004C3.2403 1.51548 4.22069 1.08304 5.2064 0.663313C5.73236 0.439319 6.27184 0.448152 6.79815 0.674972C7.75362 1.08692 8.70553 1.50629 9.65851 1.9239C10.2574 2.1864 10.7008 2.60082 10.9303 3.22087C11.0638 3.58159 11.0584 3.95326 11.0253 4.32988C10.9574 5.10362 10.8503 5.86958 10.6392 6.61928C10.2652 7.94876 9.51546 9.0341 8.45607 9.91206C8.06819 10.2336 7.65825 10.5293 7.25115 10.8271C6.88604 11.0942 6.46862 11.214 6.01598 11.2126V11.2126Z" fill="url(#paint0_linear_6809_448)"/>
<path d="M8.36531 4.04328C8.57954 4.22947 8.60373 4.57006 8.4073 4.805C8.37919 4.83892 8.34645 4.8693 8.31514 4.90039C7.41198 5.79743 6.50881 6.69446 5.6053 7.59114C5.32915 7.86531 5.10852 7.89251 4.77402 7.69537C4.38614 7.30815 3.99932 6.92022 3.61037 6.53442C3.45166 6.3772 3.40042 6.19136 3.4506 5.97832C3.53529 5.61866 4.0342 5.36534 4.41852 5.74867C4.62492 5.95465 4.83167 6.16027 5.03878 6.36589C5.06974 6.39663 5.10212 6.4256 5.13237 6.45386C5.18859 6.43585 5.21493 6.39274 5.24873 6.35953C5.99923 5.61548 6.75329 4.87496 7.49631 4.12348C7.71694 3.90019 7.96711 3.80198 8.30837 3.98039L8.33151 3.99629C8.3372 4.01608 8.33079 4.0447 8.36602 4.04328H8.36531Z" fill="black"/>
<defs>
<linearGradient id="paint0_linear_6809_448" x1="10.9146" y1="5.85629" x2="0.927429" y2="5.85629" gradientUnits="userSpaceOnUse">
<stop stop-color="#06A903"/>
<stop offset="1" stop-color="#00FF29"/>
</linearGradient>
</defs>
</svg>
